<svg width="20" height="21" viewBox="0 0 20 21" fill="none" xmlns="http://www.w3.org/2000/svg">
	<path d="M18.2416 3.01484C19 4.15831 19 5.7501 19 8.9337C19 12.1173 19 13.7091 18.2416 14.8526C17.9133 15.3476 17.4914 15.7726 17.0001 16.1034C16.0085 16.7708 14.6774 16.8552 12.25 16.8659L12.25 16.8674L11.0062 19.3735C10.5916 20.2088 9.40836 20.2088 8.99377 19.3735L7.75 16.8674L7.75 16.8659C5.32258 16.8552 3.99145 16.7708 2.99993 16.1034C2.50858 15.7726 2.0867 15.3476 1.75839 14.8526C1 13.7091 1 12.1173 1 8.9337C1 5.7501 1 4.15831 1.75839 3.01484C2.0867 2.51982 2.50858 2.0948 2.99993 1.76404C4.13494 1 5.71496 1 8.875 1L11.125 1C14.285 1 15.8651 1 17.0001 1.76404C17.4914 2.0948 17.9133 2.51982 18.2416 3.01484Z" stroke="#222222" stroke-width="1.5" stroke-linecap="round" stroke-linejoin="round" />
	<path d="M6 6L15 6" stroke="#222222" stroke-width="1.5" stroke-linecap="round" stroke-linejoin="round" />
	<path d="M6 11L10 11" stroke="#222222" stroke-width="1.5" stroke-linecap="round" stroke-linejoin="round" />
</svg>
